# File produced by Open Asset Import Library (http://www.assimp.sf.net)
# (assimp v5.0.1588609223)

mtllib result.mtl

# 8 vertex positions
v  100 99.999985 -100.00002
v  -100 99.999985 -100.00002
v  -100 100.00002 99.999985
v  100 100.00002 99.999985
v  100 -99.999985 100.00002
v  -100 -99.999985 100.00002
v  -100 -100.00002 -99.999985
v  100 -100.00002 -99.999985

# 0 UV coordinates

# 8 vertex normals
vn 57.735027 57.73502 -57.735035
vn -57.735027 57.73502 -57.735035
vn -57.735027 57.735035 57.73502
vn 57.735027 57.735035 57.73502
vn 57.735027 -57.73502 57.735035
vn -57.735027 -57.73502 57.735035
vn -57.735027 -57.735035 -57.73502
vn 57.735027 -57.735035 -57.73502

# Mesh 'Cube' with 6 faces
g Cube
usemtl Material
f  1//1 2//2 3//3 4//4
f  5//5 4//4 3//3 6//6
f  6//6 3//3 2//2 7//7
f  7//7 8//8 5//5 6//6
f  8//8 1//1 4//4 5//5
f  7//7 2//2 1//1 8//8

